<?xml version="1.0" standalone="no"?>
<!DOCTYPE svg PUBLIC "-//W3C//DTD SVG 20010904//EN"
 "http://www.w3.org/TR/2001/REC-SVG-20010904/DTD/svg10.dtd">
<svg version="1.0" xmlns="http://www.w3.org/2000/svg"
 width="500.000000pt" height="500.000000pt" viewBox="0 0 500.000000 500.000000"
 preserveAspectRatio="xMidYMid meet">
<metadata>
Created by potrace 1.14, written by Peter Selinger 2001-2017
</metadata>
<g transform="translate(0.000000,500.000000) scale(0.100000,-0.100000)"
fill="#000000" stroke="none">
<path d="M2365 4499 c-65 -7 -231 -80 -285 -126 -40 -33 -137 -196 -154 -259
-7 -27 -19 -70 -27 -97 -11 -40 -11 -53 0 -80 7 -17 17 -64 21 -104 5 -40 18
-98 30 -129 16 -45 19 -69 14 -114 -4 -35 -2 -65 5 -76 9 -16 10 -15 11 14 0
20 4 31 10 27 6 -3 10 -19 10 -35 0 -35 15 -46 35 -26 13 12 15 34 12 103 -3
48 -3 75 0 58 5 -34 29 -65 50 -65 8 0 26 -9 40 -20 30 -24 67 -25 107 -5 15
8 34 15 42 15 7 0 25 10 39 23 20 17 28 35 33 77 6 46 10 55 29 58 17 3 26 -6
41 -42 11 -24 28 -49 39 -54 10 -5 59 -13 110 -17 l91 -7 35 36 c18 21 47 40
63 45 41 10 45 51 8 80 -15 11 -32 21 -39 21 -7 0 -20 12 -30 26 -14 22 -15
28 -4 35 8 5 23 6 34 2 67 -22 71 7 4 30 -45 15 -63 16 -138 8 -128 -16 -161
-27 -198 -67 -18 -19 -30 -24 -46 -20 -84 26 -149 30 -221 15 -70 -15 -73 -15
-68 3 2 10 27 42 54 70 27 29 45 54 39 56 -8 3 -8 8 -3 15 5 7 12 27 16 46 8
46 23 61 58 61 17 0 39 10 53 24 22 22 26 23 40 10 8 -9 15 -20 15 -25 0 -16
33 -10 85 16 28 13 59 25 70 25 11 0 41 7 67 14 25 8 55 13 65 11 10 -2 30 -6
45 -9 27 -6 40 -26 68 -106 33 -96 63 -164 81 -185 51 -61 68 -102 80 -195 11
-91 21 -120 40 -120 5 0 9 19 9 43 l1 42 16 -29 c12 -23 13 -34 4 -48 -6 -10
-11 -25 -11 -33 0 -8 -5 -15 -11 -15 -5 0 -7 -5 -3 -12 5 -8 10 -6 19 5 12 17
60 13 49 -4 -3 -5 0 -9 5 -9 6 0 11 6 11 13 0 8 7 28 15 44 20 40 7 76 -35 98
-32 17 -32 35 1 35 14 0 19 7 19 25 0 14 4 25 9 25 15 0 31 -26 50 -86 19 -56
20 -57 22 -24 5 80 -13 139 -47 158 -11 6 -13 11 -5 16 16 10 13 101 -6 170
-9 34 -35 98 -58 142 -35 68 -42 91 -42 138 0 52 -3 60 -39 98 -21 22 -63 51
-93 65 -30 13 -68 35 -84 49 -16 13 -36 24 -46 24 -10 0 -37 6 -62 14 -52 17
-179 24 -264 15z m320 -739 c13 -6 2 -7 -30 -3 -27 3 -52 7 -54 9 -9 8 65 2
84 -6z"/>
<path d="M3057 3513 c-4 -3 -7 -11 -7 -17 0 -6 5 -5 12 2 6 6 9 14 7 17 -3 3
-9 2 -12 -2z"/>
<path d="M2568 3489 c-2 -18 -11 -22 -53 -26 -27 -2 -54 -8 -60 -13 -14 -12
-77 -16 -93 -6 -9 5 -43 -5 -60 -19 -2 -2 8 -21 22 -43 20 -32 32 -40 67 -46
41 -7 101 6 126 26 7 6 11 20 8 32 -4 16 4 28 35 49 38 27 70 30 70 7 0 -5 5
-10 10 -10 18 0 11 26 -13 48 -30 28 -55 28 -59 1z"/>
<path d="M2256 3439 c-27 -39 -18 -51 17 -24 14 10 16 18 9 30 -8 16 -11 15
-26 -6z"/>
<path d="M2918 3405 c-2 -19 -1 -41 4 -48 4 -7 3 -42 -2 -76 -9 -67 -3 -111
11 -75 4 10 8 45 8 77 1 31 6 57 11 57 15 0 12 62 -4 83 -19 24 -23 22 -28
-18z m19 -47 c-3 -7 -5 -2 -5 12 0 14 2 19 5 13 2 -7 2 -19 0 -25z"/>
<path d="M2647 3393 c-3 -5 -5 -21 -5 -36 0 -15 -2 -30 -5 -33 -3 -3 -32 0
-64 6 -48 8 -68 7 -102 -4 -23 -9 -48 -13 -57 -9 -8 3 -36 -3 -61 -12 l-46
-18 -23 27 c-26 30 -37 32 -54 11 -7 -8 -16 -12 -21 -9 -5 3 -12 -2 -15 -10
-8 -22 -23 -20 -44 4 -13 15 -20 18 -26 9 -4 -7 1 -18 11 -26 11 -7 14 -13 8
-13 -6 0 -14 -12 -17 -26 -5 -19 4 -45 35 -102 64 -118 94 -159 192 -262 49
-52 101 -107 115 -122 14 -16 35 -28 46 -28 19 -1 19 -2 4 -13 -14 -11 -13
-15 14 -30 36 -21 51 -21 88 -2 31 16 40 33 18 32 -7 0 -26 1 -43 2 l-30 1 21
18 c24 18 48 62 57 103 7 26 71 97 123 135 40 29 102 156 108 220 l5 52 -48 4
c-53 5 -91 34 -91 68 0 39 -77 90 -93 63z m-47 -135 c0 -15 -5 -18 -20 -13
-11 3 -20 3 -20 -2 0 -13 -89 -37 -137 -38 -26 0 -49 6 -59 16 -15 16 -13 18
21 29 20 7 44 10 53 8 10 -3 22 0 28 6 6 6 38 12 72 12 55 2 62 0 62 -18z m90
-18 c14 0 21 -36 12 -61 -13 -34 -5 -50 23 -43 35 9 40 -13 11 -51 -53 -69
-87 -86 -183 -93 -191 -13 -229 -8 -256 37 -22 37 -22 52 0 44 13 -5 11 4 -11
41 -26 45 -27 49 -11 66 20 22 39 17 78 -18 26 -25 36 -52 18 -52 -5 0 -7 -10
-4 -21 6 -20 11 -21 92 -17 47 3 100 11 116 17 l30 13 -25 21 c-15 13 -24 30
-22 41 4 17 0 18 -35 10 -59 -13 -143 -8 -161 10 -19 19 -12 20 57 7 42 -8 93
-1 136 19 44 21 101 38 113 34 8 -2 17 -4 22 -4z"/>
<path d="M2920 2909 c0 -50 -68 -186 -118 -239 -29 -30 -31 -35 -15 -41 18 -6
42 9 38 26 -1 5 0 7 2 2 3 -4 9 -5 14 -2 11 7 1 -19 -22 -60 -23 -41 -34 -78
-20 -74 14 5 116 216 135 280 9 29 16 69 16 88 l1 36 15 -29 c23 -41 20 -85
-9 -142 -13 -27 -28 -60 -32 -73 -4 -14 -28 -57 -54 -95 -25 -39 -49 -79 -53
-88 -5 -11 -18 -18 -36 -18 -31 0 -41 -25 -14 -35 22 -8 -14 -45 -47 -46 -24
-2 -24 -2 -3 -6 18 -4 21 -9 16 -26 -6 -21 -6 -21 17 -4 54 38 60 40 66 18 4
-15 13 -21 34 -21 15 0 31 5 34 10 14 23 25 7 25 -40 0 -39 -6 -58 -32 -95
-34 -48 -33 -70 1 -36 l21 21 0 -21 c0 -11 -11 -35 -24 -52 -35 -47 -74 -129
-87 -184 -14 -60 -13 -782 1 -958 6 -66 17 -248 25 -405 8 -157 21 -328 29
-380 9 -52 18 -116 21 -142 4 -33 11 -48 21 -48 25 0 205 40 299 67 89 26 241
80 343 123 52 23 52 23 46 59 -4 20 -13 54 -21 75 -14 42 -6 115 24 206 8 25
18 73 23 108 8 70 12 77 35 69 12 -5 15 -24 15 -95 0 -80 3 -95 31 -149 37
-73 34 -108 -14 -138 -29 -18 -72 -83 -62 -93 7 -7 154 76 271 152 185 122
429 339 529 470 l29 38 -22 42 c-12 22 -22 46 -22 52 0 6 -11 36 -24 65 -13
30 -35 89 -50 133 -15 43 -38 102 -51 130 -12 28 -26 61 -30 74 -3 12 -10 22
-14 22 -5 0 -11 14 -15 30 -3 17 -22 65 -42 108 -21 42 -43 95 -50 117 -31 96
-75 219 -82 229 -5 6 -9 22 -10 36 -1 26 -45 159 -64 197 -6 13 -19 25 -30 29
-13 4 -18 15 -18 45 0 47 -31 117 -68 152 -39 37 -254 143 -337 166 -38 10
-78 22 -87 26 -11 4 -18 3 -18 -4 0 -7 -12 -3 -27 8 -31 21 -98 37 -88 21 8
-13 2 -13 -31 4 -37 20 -50 10 -22 -15 l23 -20 -25 12 c-14 6 -32 18 -40 26
-8 7 -27 22 -41 33 -18 13 -32 41 -48 92 -24 82 -67 174 -93 200 -11 11 -33
18 -53 18 -34 0 -35 -1 -35 -41z m137 -116 c-3 -10 -5 -2 -5 17 0 19 2 27 5
18 2 -10 2 -26 0 -35z m580 -339 c-3 -3 -12 -4 -19 -1 -8 3 -5 6 6 6 11 1 17
-2 13 -5z m50 -10 c-3 -3 -12 -4 -19 -1 -8 3 -5 6 6 6 11 1 17 -2 13 -5z m67
-33 c-2 -3 -12 3 -22 13 -16 17 -16 18 5 5 12 -7 20 -15 17 -18z m371 -791 c3
-5 -1 -10 -10 -10 -9 0 -13 5 -10 10 3 6 8 10 10 10 2 0 7 -4 10 -10z"/>
<path d="M2122 2895 c-17 -14 -34 -25 -39 -25 -18 0 -72 -62 -83 -96 -11 -32
-9 -58 6 -98 3 -9 2 -16 -4 -16 -5 0 -12 10 -15 22 l-6 23 -21 -23 c-11 -12
-26 -23 -33 -23 -7 -1 -33 -3 -58 -5 -25 -1 -70 -12 -100 -23 -30 -12 -64 -21
-77 -21 -13 0 -37 -7 -55 -17 -30 -15 -31 -15 -18 0 7 10 11 17 8 17 -21 0
-121 -41 -235 -97 -102 -50 -136 -71 -145 -92 -6 -14 -15 -28 -19 -31 -16 -12
-50 -108 -52 -145 -1 -22 -7 -50 -14 -62 -20 -36 -60 -155 -67 -202 -6 -39 -5
-46 16 -62 13 -10 19 -19 12 -19 -6 0 -15 5 -18 10 -15 24 -35 5 -68 -62 -19
-40 -40 -100 -47 -133 -7 -33 -16 -64 -20 -70 -11 -15 -77 -214 -83 -255 -6
-35 -50 -162 -81 -232 -9 -21 -16 -48 -16 -61 0 -13 -9 -42 -20 -65 -27 -56
-40 -128 -40 -222 l0 -77 48 -44 c331 -308 693 -506 1122 -613 128 -33 397
-76 403 -65 1 2 0 263 -3 579 -3 316 -2 744 1 950 7 354 0 563 -27 852 -6 65
-6 67 15 61 12 -3 24 -9 26 -14 7 -10 35 0 52 17 10 9 9 13 -3 18 -25 10 -36
7 -29 -6 4 -7 -7 3 -24 22 -24 27 -31 44 -32 80 -1 25 -1 49 0 53 2 10 -20 31
-40 39 -9 3 -28 31 -43 62 -15 31 -32 56 -37 56 -6 0 -7 6 -2 13 4 6 10 38 13
70 7 65 -2 71 -48 32z m35 -11 c-3 -3 -12 -4 -19 -1 -8 3 -5 6 6 6 11 1 17 -2
13 -5z m-72 -87 c-11 -7 -31 -14 -45 -15 -24 -1 -24 0 -6 14 11 8 31 14 45 14
24 0 25 -1 6 -13z m15 -32 c-7 -8 -16 -12 -21 -9 -13 8 -1 24 18 24 13 0 13
-3 3 -15z m-175 -214 c-3 -6 -11 -11 -17 -11 -6 0 -6 6 2 15 14 17 26 13 15
-4z m-25 -38 c0 5 4 5 10 2 6 -4 5 -11 -2 -19 -16 -17 -40 -16 -33 1 3 8 5 20
5 26 0 7 4 6 10 -3 5 -8 10 -11 10 -7z m-417 0 c-13 -2 -23 -9 -23 -14 0 -5
-6 -9 -12 -8 -22 4 -98 -33 -92 -43 4 -6 1 -9 -7 -6 -8 3 -20 -1 -27 -9 -16
-15 -42 -17 -42 -3 0 25 151 90 205 88 17 -1 16 -1 -2 -5z m-19 -1760 c9 -88
16 -310 9 -275 -2 12 -7 22 -11 22 -4 0 -15 7 -25 14 -17 13 -17 16 2 66 13
34 17 59 12 69 -17 32 -31 154 -19 168 20 24 25 13 32 -64z m26 -388 c0 -32
-4 -45 -14 -45 -21 0 -29 33 -15 64 18 39 29 32 29 -19z"/>
<path d="M2194 2897 c-4 -11 3 -29 20 -50 93 -115 148 -194 153 -219 4 -19 15
-33 30 -39 40 -15 44 -11 22 27 -21 38 -151 198 -170 210 -6 3 -19 25 -29 48
-15 32 -20 37 -26 23z"/>
<path d="M2327 2549 c7 -7 15 -10 18 -7 3 3 -2 9 -12 12 -14 6 -15 5 -6 -5z"/>
<path d="M2617 2428 c-8 -18 -25 -49 -38 -68 -13 -20 -34 -69 -47 -110 -13
-41 -42 -127 -64 -190 -22 -63 -46 -146 -53 -185 -18 -99 -30 -295 -17 -295 5
0 13 57 17 133 9 168 17 208 65 337 21 58 48 139 60 180 12 41 35 96 51 121
16 25 29 50 29 56 0 6 7 16 15 23 17 14 20 30 5 30 -5 0 -16 -15 -23 -32z"/>
<path d="M2291 2410 c0 -8 4 -24 9 -35 5 -13 9 -14 9 -5 0 8 -4 24 -9 35 -5
13 -9 14 -9 5z"/>
</g>
</svg>
